<svg xmlns="http://www.w3.org/2000/svg" width="256" height="256" viewBox="0 0 100 100"><path d="M20.12 66.15L36.77 66.15L40.00 77.73L51.28 77.73L33.45 22.27L23.74 22.27L5.57 77.73L16.85 77.73L20.12 66.15ZM34.25 57.05L22.75 57.05L28.58 36.63L34.25 57.05ZM94.43 71.25L94.43 71.25L94.39 49.39L74.55 49.39L74.55 57.39L83.73 57.39L83.69 67.44Q83.27 67.94 82.45 68.38Q81.63 68.81 80.56 69.16L80.56 69.16Q79.50 69.50 78.28 69.69Q77.06 69.88 75.80 69.88L75.80 69.88Q73.75 69.84 72.13 69.21Q70.51 68.59 69.29 67.37L69.29 67.37Q68.57 66.64 67.98 65.71Q67.39 64.78 66.93 63.67L66.93 63.67Q66.21 61.77 65.81 59.29Q65.41 56.82 65.41 53.81L65.41 53.81L65.41 46.19Q65.41 43.79 65.69 41.74Q65.98 39.68 66.51 38.00L66.51 38.00Q67.20 35.83 68.24 34.23Q69.29 32.63 70.59 31.64L70.59 31.64Q71.58 30.92 72.72 30.54Q73.86 30.16 75.08 30.16L75.08 30.16Q77.33 30.16 78.95 30.75Q80.56 31.34 81.63 32.52L81.63 32.52Q82.58 33.58 83.13 35.15Q83.69 36.71 83.95 38.73L83.95 38.73L94.39 38.73Q93.97 34.73 92.62 31.53Q91.27 28.33 88.87 26.08L88.87 26.08Q86.47 23.87 82.98 22.69Q79.50 21.51 74.81 21.51L74.81 21.51Q71.77 21.51 69.02 22.35Q66.28 23.19 63.96 24.83L63.96 24.83Q61.98 26.27 60.32 28.25Q58.66 30.23 57.41 32.71L57.41 32.71Q56.07 35.49 55.35 38.90Q54.63 42.31 54.63 46.27L54.63 46.27L54.63 53.81Q54.63 57.96 55.37 61.50Q56.11 65.04 57.56 67.86L57.56 67.86Q58.82 70.41 60.63 72.39Q62.44 74.38 64.64 75.75L64.64 75.75Q66.89 77.08 69.58 77.78Q72.26 78.49 75.31 78.49L75.31 78.49Q78.81 78.49 81.86 77.84Q84.91 77.19 87.38 76.13L87.38 76.13Q89.82 75.10 91.61 73.80Q93.40 72.51 94.43 71.25Z" fill="#000000"></path></svg>